<?xml version="1.0" encoding="UTF-8"?>
<svg xmlns="http://www.w3.org/2000/svg" xmlns:xlink="http://www.w3.org/1999/xlink" width="120px" height="120px" viewBox="0 0 120 120" version="1.1">
<g id="surface1">
<path style=" stroke:none;fill-rule:nonzero;fill:rgb(0%,0%,0%);fill-opacity:1;" d="M 56.601562 0.351562 C 54.65625 0.726562 52.851562 1.335938 51.117188 2.226562 C 49.054688 3.257812 15.023438 22.921875 13.617188 23.90625 C 10.007812 26.34375 7.242188 30.375 6.046875 34.921875 L 5.507812 36.914062 L 5.507812 83.085938 L 6.046875 85.078125 C 7.242188 89.625 10.007812 93.65625 13.617188 96.09375 C 15.023438 97.078125 49.054688 116.742188 51.117188 117.773438 C 56.789062 120.65625 63.210938 120.65625 68.882812 117.773438 C 70.945312 116.742188 104.976562 97.078125 106.382812 96.09375 C 109.992188 93.65625 112.757812 89.625 113.953125 85.078125 L 114.492188 83.085938 L 114.492188 36.914062 L 113.953125 34.921875 C 112.757812 30.375 109.992188 26.34375 106.382812 23.90625 C 104.859375 22.851562 70.804688 3.1875 68.765625 2.15625 C 64.875 0.234375 60.632812 -0.398438 56.601562 0.351562 Z M 63.398438 10.007812 C 64.734375 10.523438 99.632812 30.585938 101.296875 31.804688 C 102.609375 32.765625 103.828125 34.359375 104.578125 36.09375 L 105.117188 37.382812 L 105.1875 59.296875 C 105.234375 73.710938 105.164062 81.585938 105 82.335938 C 104.882812 82.96875 104.484375 84.046875 104.15625 84.773438 C 102.890625 87.421875 102.609375 87.609375 82.710938 99.070312 C 72.609375 104.90625 63.867188 109.851562 63.28125 110.0625 C 61.734375 110.671875 58.148438 110.625 56.601562 110.015625 C 55.195312 109.453125 20.296875 89.34375 18.703125 88.195312 C 17.414062 87.257812 16.242188 85.734375 15.445312 83.90625 L 14.882812 82.617188 L 14.8125 60.703125 C 14.765625 46.757812 14.835938 38.390625 14.976562 37.6875 C 15.375 35.90625 16.429688 33.984375 17.695312 32.71875 C 18.65625 31.757812 22.59375 29.390625 37.289062 20.90625 C 47.414062 15.09375 56.15625 10.148438 56.742188 9.984375 C 57.304688 9.796875 57.984375 9.585938 58.242188 9.515625 C 59.179688 9.28125 62.25 9.5625 63.398438 10.007812 Z M 63.398438 10.007812 "/>
<path style=" stroke:none;fill-rule:nonzero;fill:rgb(0%,0%,0%);fill-opacity:1;" d="M 33.632812 40.804688 C 31.007812 41.789062 29.765625 44.71875 30.914062 47.25 C 31.265625 48.023438 32.742188 49.40625 38.273438 54.046875 C 42.09375 57.257812 45.210938 59.929688 45.210938 60 C 45.210938 60.070312 42.09375 62.742188 38.273438 65.953125 C 32.414062 70.898438 31.289062 71.929688 30.890625 72.84375 C 29.90625 75.046875 30.820312 77.742188 32.929688 78.84375 C 34.078125 79.429688 36.117188 79.476562 37.148438 78.9375 C 37.546875 78.726562 41.976562 75.070312 47.039062 70.78125 C 56.90625 62.4375 57.1875 62.132812 57.1875 60 C 57.1875 57.867188 56.90625 57.5625 47.039062 49.21875 C 41.976562 44.929688 37.546875 41.296875 37.195312 41.109375 C 36.304688 40.640625 34.5 40.5 33.632812 40.804688 Z M 33.632812 40.804688 "/>
<path style=" stroke:none;fill-rule:nonzero;fill:rgb(0%,0%,0%);fill-opacity:1;" d="M 61.992188 70.40625 C 59.882812 71.34375 58.710938 73.757812 59.296875 75.960938 C 59.648438 77.273438 61.171875 78.84375 62.460938 79.195312 C 63.09375 79.359375 67.101562 79.453125 74.53125 79.453125 L 85.664062 79.453125 L 86.882812 78.890625 C 90.398438 77.25 90.398438 72.117188 86.835938 70.523438 C 85.96875 70.125 85.054688 70.078125 74.296875 70.101562 C 65.15625 70.101562 62.554688 70.171875 61.992188 70.40625 Z M 61.992188 70.40625 "/>
</g>
</svg>
